<svg width="72" height="72" viewBox="0 0 72 72" fill="none" xmlns="http://www.w3.org/2000/svg">
<path d="M27.2433 31.7473V53.8263C27.2433 54.808 26.6587 55.6812 25.7861 56.0046C24.5515 56.4643 23.0616 56.7068 21.4758 56.7068C16.9145 56.7068 12.0087 54.7249 12.0087 50.3728V22.1216C11.9061 20.1812 12.5453 16.7532 15.6144 14.8982C17.0389 14.0366 24.5188 8.94307 28.275 6.36974C28.9447 5.91005 29.7998 5.87771 30.5022 6.27965C31.2046 6.68621 31.6409 7.46468 31.6409 8.31014V11.655C31.6409 12.9301 30.6636 13.965 29.4595 13.965C28.5215 13.965 27.721 13.339 27.4134 12.4566C24.0192 14.7666 19.0195 18.1576 17.7784 18.9084C16.6615 19.5852 16.4194 20.828 16.3714 21.5025C16.3714 22.2602 16.5263 22.8562 16.8055 23.1819C17.5799 24.0759 20.1604 23.5191 22.9765 21.7289C25.6814 20.0103 39.0226 10.604 39.1557 10.5093C39.8297 10.0357 40.6892 9.99181 41.3937 10.3961C42.1049 10.798 42.5477 11.5811 42.5477 12.4335V12.6968C42.5477 13.4684 42.1834 14.1891 41.5791 14.6187C41.5791 14.6187 32.3171 21.1653 31.4969 21.722C28.3579 23.861 27.2433 26.4852 27.2433 31.7473ZM59.9985 20.5993V50.5877C59.9985 51.38 59.6124 52.1192 58.9777 52.5419C58.9777 52.5419 46.2603 63.0016 43.6798 64.6625C42.323 65.538 40.5954 66 38.6867 66C34.1516 66 29.4595 63.4012 29.4595 59.0561V31.0682V30.3914C29.4595 30.3821 29.4661 30.3729 29.4661 30.3613C29.5097 28.6704 29.8827 26.2565 32.8515 23.9373C34.6315 22.5466 45.2329 14.8913 45.6823 14.5679C46.352 14.0874 47.218 14.0366 47.9291 14.4339C48.6446 14.8336 49.0917 15.619 49.0917 16.476V19.8208C49.0917 21.096 48.1167 22.1308 46.9104 22.1308C46.0095 22.1308 45.2351 21.5533 44.9035 20.7264C41.5203 23.1773 36.5533 26.7878 35.4408 27.654C34.036 28.7536 33.8484 29.4789 33.8244 30.4099C33.8288 31.1005 34.0055 31.6272 34.3632 31.9737C35.4757 33.0525 38.4707 32.5997 41.4243 30.724C43.61 29.3334 53.0291 21.6319 56.4713 18.7813C57.1322 18.2408 58.0222 18.1415 58.7726 18.5272C59.523 18.913 59.9985 19.7146 59.9985 20.5993ZM55.6358 30.8926L44.729 39.8531V44.4731L55.6358 35.5126V30.8926Z" fill="#36D7DC" fill-opacity="1"/>
</svg>
