<svg width="72" height="72" viewBox="0 0 72 72" fill="none" xmlns="http://www.w3.org/2000/svg">
<path fill-rule="evenodd" clip-rule="evenodd" d="M31.2 50.4C20.5835 50.4 12 41.8165 12 31.2C12 20.5835 20.5835 12 31.2 12C41.8165 12 50.4 20.5835 50.4 31.2C50.4 35.5548 48.9558 39.5675 46.5194 42.7861L59.2 55.4667C60.2666 56.5333 60.2666 58.1333 59.2 59.2C58.6666 59.7333 58.1333 60 57.3333 60C56.5333 60 56 59.7333 55.4666 59.2L42.786 46.5194C39.5675 48.9558 35.5548 50.4 31.2 50.4ZM31.2 16.8C23.2246 16.8 16.8 23.2246 16.8 31.2C16.8 39.1754 23.2246 45.6 31.2 45.6C39.1754 45.6 45.6 39.1754 45.6 31.2C45.6 23.2246 39.1754 16.8 31.2 16.8Z" fill="#36D7DC" />
</svg>
